<svg xml:space="preserve" width="648" height="626" xmlns="http://www.w3.org/2000/svg"><path d="M604 659H91c-34.8 0-63-28.2-63-63V105c0-34.8 28.2-63 63-63h513c34.8 0 63 28.2 63 63v491c0 34.8-28.2 63-63 63z" style="display:inline;fill:#fff;fill-opacity:1;stroke:#000;stroke-width:9;stroke-miterlimit:10" transform="translate(-23.5 -37.5)"/><path d="M411.2 262.5h-140c-9.4-.2-17.7 8.1-17.5 17.5 2.2 7.8-5.5 150.3 5.1 152.4 1.5 10.7 145.1 2.9 152.4 5.1 9.4.1 17.7-8.1 17.5-17.5V280c.2-9.4-8.1-17.7-17.5-17.5zm-22.3 95.3c-112.4 48.8-100.7 87.2-100.2-51.6-.2-6.3 7.1-10.8 12.7-7.8l87.5 43.7c6.4 3 6.4 12.8 0 15.7z" style="display:inline" transform="translate(-23.5 -37.5)"/><path d="m306.2 379.6 59.2-29.6-59.2-29.6zM218.7 262.5H96.2c-9.4-.2-17.7 8.1-17.5 17.5 2.2 7.8-5.5 150.3 5.1 152.4.2 10.2 128.3 3.2 134.9 5.1 9.4.1 17.7-8.1 17.5-17.5V280c.2-9.4-8.1-17.7-17.5-17.5zm-63.8 119.9c-3.3 3.4-9.1 3.4-12.4 0-2.8-4.1-30.3-26.9-28.8-32.4-1.6-5.5 26.2-28.5 28.8-32.4 7.9-8.1 20.5 4.5 12.4 12.4l-20.1 20.1 20.1 20.1c3.4 3.1 3.4 9 0 12.2zm43.8-12.3c8.2 7.9-4.5 20.6-12.4 12.4l-26.2-26.2c-3.4-3.3-3.4-9.1 0-12.4l26.2-26.2c7.9-8 20.4 4.5 12.4 12.4l-20.1 20.1zM411.2 87.5h-140c-9.4-.2-17.7 8.1-17.5 17.5 1.7 7.1-4.9 134.1 5.1 134.9 1.5 10.7 145.1 2.9 152.4 5.1 9.4.1 17.7-8.1 17.5-17.5V105c.2-9.4-8.1-17.7-17.5-17.5zM385 210h-87.5v-87.5H385z" style="display:inline" transform="translate(-23.5 -37.5)"/><path d="M315 140h17.5v52.5H315zM350 140h17.5v52.5H350zM411.2 455h-140c-9.4-.2-17.7 8.1-17.5 17.5 1.7 7.1-4.9 134.1 5.1 134.9 1.5 10.7 145.1 2.9 152.4 5.1 9.4.1 17.7-8.1 17.5-17.5V472.5c.2-9.4-8.1-17.7-17.5-17.5zM385 577.5h-87.5V490H385z" style="display:inline" transform="translate(-23.5 -37.5)"/><path d="M315 507.5h52.5V560H315zM586.2 262.5H463.7c-9.4-.2-17.7 8.1-17.5 17.5 2.2 7.8-5.5 150.3 5.1 152.4.2 10.2 128.3 3.2 134.9 5.1 9.4.1 17.7-8.1 17.5-17.5V280c.2-9.4-8.1-17.7-17.5-17.5zm-90 119.9c-7.9 8-20.4-4.5-12.4-12.4l20.1-20.1-20.1-20.1c-8-7.9 4.5-20.4 12.4-12.4 2.8 4.1 30.3 26.9 28.8 32.4 1.6 5.7-26.2 28.7-28.8 32.6zm70-26.2L540 382.4c-7.9 8-20.4-4.5-12.4-12.4l20.1-20.1-20.1-20.1c-8-7.9 4.5-20.4 12.4-12.4l26.2 26.2c3.4 3.5 3.4 9.3 0 12.6z" style="display:inline" transform="translate(-23.5 -37.5)"/></svg>