<?xml version="1.0" encoding="UTF-8" standalone="no"?>
<!-- Generator: Adobe Illustrator 25.2.1, SVG Export Plug-In . SVG Version: 6.00 Build 0)  -->

<svg
   version="1.1"
   id="Слой_1"
   x="0px"
   y="0px"
   viewBox="0 0 648 626"
   xml:space="preserve"
   sodipodi:docname="app.svg"
   width="648"
   height="626"
   inkscape:version="1.4 (e7c3feb100, 2024-10-09)"
   xmlns:inkscape="http://www.inkscape.org/namespaces/inkscape"
   xmlns:sodipodi="http://sodipodi.sourceforge.net/DTD/sodipodi-0.dtd"
   xmlns="http://www.w3.org/2000/svg"
   xmlns:svg="http://www.w3.org/2000/svg"><defs
   id="defs10" /><sodipodi:namedview
   id="namedview10"
   pagecolor="#ffffff"
   bordercolor="#000000"
   borderopacity="0.25"
   inkscape:showpageshadow="2"
   inkscape:pageopacity="0.0"
   inkscape:pagecheckerboard="0"
   inkscape:deskcolor="#d1d1d1"
   showguides="false"
   inkscape:zoom="1.1428571"
   inkscape:cx="320.6875"
   inkscape:cy="329.875"
   inkscape:window-width="1920"
   inkscape:window-height="1011"
   inkscape:window-x="0"
   inkscape:window-y="0"
   inkscape:window-maximized="1"
   inkscape:current-layer="g10" />
<style
   type="text/css"
   id="style1">
	.st0{fill:none;stroke:#000000;stroke-width:9;stroke-miterlimit:10;}
</style>
<g
   id="g10"
   transform="translate(-23.5,-37.5)">
	<path
   class="st0"
   d="M 604,659 H 91 C 56.2,659 28,630.8 28,596 V 105 C 28,70.2 56.2,42 91,42 h 513 c 34.8,0 63,28.2 63,63 v 491 c 0,34.8 -28.2,63 -63,63 z"
   id="path10"
   style="display:inline;fill:#ffffff;fill-opacity:1" /><path
   d="m 411.2,262.5 c 0,0 -140,0 -140,0 -9.4,-0.2 -17.7,8.1 -17.5,17.5 2.2,7.8 -5.5,150.3 5.1,152.4 1.5,10.7 145.1,2.9 152.4,5.1 9.4,0.1 17.7,-8.1 17.5,-17.5 0,0 0,-140 0,-140 0.2,-9.4 -8.1,-17.7 -17.5,-17.5 z m -22.3,95.3 C 276.5,406.6 288.2,445 288.7,306.2 c -0.2,-6.3 7.1,-10.8 12.7,-7.8 0,0 87.5,43.7 87.5,43.7 6.4,3 6.4,12.8 0,15.7 z"
   id="path1"
   style="display:inline" />
	<path
   d="M 306.2,379.6 365.4,350 306.2,320.4 Z"
   id="path2"
   style="display:inline" />
	<path
   d="m 218.7,262.5 c 0,0 -122.5,0 -122.5,0 -9.4,-0.2 -17.7,8.1 -17.5,17.5 2.2,7.8 -5.5,150.3 5.1,152.4 0.2,10.2 128.3,3.2 134.9,5.1 9.4,0.1 17.7,-8.1 17.5,-17.5 0,0 0,-140 0,-140 0.2,-9.4 -8.1,-17.7 -17.5,-17.5 z m -63.8,119.9 c -3.3,3.4 -9.1,3.4 -12.4,0 -2.8,-4.1 -30.3,-26.9 -28.8,-32.4 -1.6,-5.5 26.2,-28.5 28.8,-32.4 7.9,-8.1 20.5,4.5 12.4,12.4 0,0 -20.1,20.1 -20.1,20.1 l 20.1,20.1 v 0 c 3.4,3.1 3.4,9 0,12.2 z m 43.8,-12.3 v 0 c 8.2,7.9 -4.5,20.6 -12.4,12.4 0,0 -26.2,-26.2 -26.2,-26.2 -3.4,-3.3 -3.4,-9.1 0,-12.4 0,0 26.2,-26.2 26.2,-26.2 7.9,-8 20.4,4.5 12.4,12.4 0,0 -20.1,20.1 -20.1,20.1 z"
   id="path3"
   style="display:inline" />
	<path
   d="m 411.2,87.5 h -140 c -9.4,-0.2 -17.7,8.1 -17.5,17.5 1.7,7.1 -4.9,134.1 5.1,134.9 1.5,10.7 145.1,2.9 152.4,5.1 9.4,0.1 17.7,-8.1 17.5,-17.5 0,0 0,-122.5 0,-122.5 0.2,-9.4 -8.1,-17.7 -17.5,-17.5 z M 385,210 H 297.5 V 122.5 H 385 Z"
   id="path4"
   style="display:inline" />
	<path
   d="m 315,140 h 17.5 v 52.5 H 315 Z"
   id="path5"
   style="display:inline" />
	<path
   d="m 350,140 h 17.5 v 52.5 H 350 Z"
   id="path6"
   style="display:inline" />
	<path
   d="m 411.2,455 h -140 c -9.4,-0.2 -17.7,8.1 -17.5,17.5 1.7,7.1 -4.9,134.1 5.1,134.9 1.5,10.7 145.1,2.9 152.4,5.1 9.4,0.1 17.7,-8.1 17.5,-17.5 0,0 0,-122.5 0,-122.5 0.2,-9.4 -8.1,-17.7 -17.5,-17.5 z M 385,577.5 H 297.5 V 490 H 385 Z"
   id="path7"
   style="display:inline" />
	<path
   d="m 315,507.5 h 52.5 V 560 H 315 Z"
   id="path8"
   style="display:inline" />
	<path
   d="m 586.2,262.5 c 0,0 -122.5,0 -122.5,0 -9.4,-0.2 -17.7,8.1 -17.5,17.5 2.2,7.8 -5.5,150.3 5.1,152.4 0.2,10.2 128.3,3.2 134.9,5.1 9.4,0.1 17.7,-8.1 17.5,-17.5 0,0 0,-140 0,-140 0.2,-9.4 -8.1,-17.7 -17.5,-17.5 z m -90,119.9 c -7.9,8 -20.4,-4.5 -12.4,-12.4 0,0 20.1,-20.1 20.1,-20.1 l -20.1,-20.1 v 0 c -8,-7.9 4.5,-20.4 12.4,-12.4 2.8,4.1 30.3,26.9 28.8,32.4 1.6,5.7 -26.2,28.7 -28.8,32.6 z m 70,-26.2 -26.2,26.2 c -7.9,8 -20.4,-4.5 -12.4,-12.4 0,0 20.1,-20.1 20.1,-20.1 l -20.1,-20.1 v 0 c -8,-7.9 4.5,-20.4 12.4,-12.4 0,0 26.2,26.2 26.2,26.2 3.4,3.5 3.4,9.3 0,12.6 z"
   id="path9"
   style="display:inline" />
	
</g>
</svg>
